<mxfile host="app.diagrams.net" modified="2024-04-22T14:29:07.131Z" agent="Mozilla/5.0 (Windows NT 10.0; Win64; x64) AppleWebKit/537.36 (KHTML, like Gecko) Chrome/123.0.0.0 Safari/537.36" etag="LoDFtBHWvBrB5fyc_BD0" version="24.2.7" type="device">
  <diagram id="C5RBs43oDa-KdzZeNtuy" name="Page-1">
    <mxGraphModel dx="1202" dy="722" grid="1" gridSize="10" guides="1" tooltips="1" connect="1" arrows="1" fold="1" page="1" pageScale="1" pageWidth="827" pageHeight="1169" math="0" shadow="0">
      <root>
        <mxCell id="WIyWlLk6GJQsqaUBKTNV-0" />
        <mxCell id="WIyWlLk6GJQsqaUBKTNV-1" parent="WIyWlLk6GJQsqaUBKTNV-0" />
        <mxCell id="28hTMvahC_J_4jAk3fm_-3" value="" style="edgeStyle=orthogonalEdgeStyle;rounded=0;orthogonalLoop=1;jettySize=auto;html=1;" edge="1" parent="WIyWlLk6GJQsqaUBKTNV-1" source="28hTMvahC_J_4jAk3fm_-0" target="28hTMvahC_J_4jAk3fm_-1">
          <mxGeometry relative="1" as="geometry" />
        </mxCell>
        <mxCell id="28hTMvahC_J_4jAk3fm_-0" value="Dispensa vuota" style="ellipse;whiteSpace=wrap;html=1;" vertex="1" parent="WIyWlLk6GJQsqaUBKTNV-1">
          <mxGeometry x="30" y="20" width="120" height="80" as="geometry" />
        </mxCell>
        <mxCell id="28hTMvahC_J_4jAk3fm_-5" value="" style="edgeStyle=orthogonalEdgeStyle;rounded=0;orthogonalLoop=1;jettySize=auto;html=1;" edge="1" parent="WIyWlLk6GJQsqaUBKTNV-1" source="28hTMvahC_J_4jAk3fm_-1" target="28hTMvahC_J_4jAk3fm_-4">
          <mxGeometry relative="1" as="geometry" />
        </mxCell>
        <mxCell id="28hTMvahC_J_4jAk3fm_-1" value="Vedi cosa manca" style="rounded=0;whiteSpace=wrap;html=1;" vertex="1" parent="WIyWlLk6GJQsqaUBKTNV-1">
          <mxGeometry x="200" y="30" width="120" height="60" as="geometry" />
        </mxCell>
        <mxCell id="28hTMvahC_J_4jAk3fm_-12" value="" style="edgeStyle=orthogonalEdgeStyle;rounded=0;orthogonalLoop=1;jettySize=auto;html=1;" edge="1" parent="WIyWlLk6GJQsqaUBKTNV-1" source="28hTMvahC_J_4jAk3fm_-4" target="28hTMvahC_J_4jAk3fm_-11">
          <mxGeometry relative="1" as="geometry" />
        </mxCell>
        <mxCell id="28hTMvahC_J_4jAk3fm_-4" value="Scrivo Lista Spesa" style="rounded=0;whiteSpace=wrap;html=1;" vertex="1" parent="WIyWlLk6GJQsqaUBKTNV-1">
          <mxGeometry x="400" y="30" width="120" height="60" as="geometry" />
        </mxCell>
        <mxCell id="28hTMvahC_J_4jAk3fm_-18" value="" style="edgeStyle=orthogonalEdgeStyle;rounded=0;orthogonalLoop=1;jettySize=auto;html=1;exitX=0.446;exitY=1.005;exitDx=0;exitDy=0;exitPerimeter=0;entryX=0.75;entryY=0;entryDx=0;entryDy=0;" edge="1" parent="WIyWlLk6GJQsqaUBKTNV-1" source="28hTMvahC_J_4jAk3fm_-6" target="28hTMvahC_J_4jAk3fm_-16">
          <mxGeometry relative="1" as="geometry">
            <mxPoint x="750.0000000000002" y="249.9999999999999" as="sourcePoint" />
            <mxPoint x="642.9999999999998" y="390" as="targetPoint" />
          </mxGeometry>
        </mxCell>
        <mxCell id="28hTMvahC_J_4jAk3fm_-6" value="Stabilisco minimo e massimo da spendere" style="whiteSpace=wrap;html=1;rounded=0;" vertex="1" parent="WIyWlLk6GJQsqaUBKTNV-1">
          <mxGeometry x="707" y="150" width="120" height="60" as="geometry" />
        </mxCell>
        <mxCell id="28hTMvahC_J_4jAk3fm_-15" value="sì" style="edgeStyle=orthogonalEdgeStyle;rounded=0;orthogonalLoop=1;jettySize=auto;html=1;" edge="1" parent="WIyWlLk6GJQsqaUBKTNV-1" source="28hTMvahC_J_4jAk3fm_-11" target="28hTMvahC_J_4jAk3fm_-14">
          <mxGeometry relative="1" as="geometry">
            <Array as="points">
              <mxPoint x="630" y="210" />
              <mxPoint x="630" y="210" />
            </Array>
          </mxGeometry>
        </mxCell>
        <mxCell id="28hTMvahC_J_4jAk3fm_-21" value="no" style="edgeStyle=orthogonalEdgeStyle;rounded=0;orthogonalLoop=1;jettySize=auto;html=1;" edge="1" parent="WIyWlLk6GJQsqaUBKTNV-1" source="28hTMvahC_J_4jAk3fm_-11" target="28hTMvahC_J_4jAk3fm_-6">
          <mxGeometry relative="1" as="geometry" />
        </mxCell>
        <mxCell id="28hTMvahC_J_4jAk3fm_-11" value="Vedo se il&amp;nbsp; coupon è scaduto?" style="rhombus;whiteSpace=wrap;html=1;rounded=0;" vertex="1" parent="WIyWlLk6GJQsqaUBKTNV-1">
          <mxGeometry x="610" y="20" width="80" height="80" as="geometry" />
        </mxCell>
        <mxCell id="28hTMvahC_J_4jAk3fm_-17" value="" style="edgeStyle=orthogonalEdgeStyle;rounded=0;orthogonalLoop=1;jettySize=auto;html=1;" edge="1" parent="WIyWlLk6GJQsqaUBKTNV-1" source="28hTMvahC_J_4jAk3fm_-14" target="28hTMvahC_J_4jAk3fm_-16">
          <mxGeometry relative="1" as="geometry" />
        </mxCell>
        <mxCell id="28hTMvahC_J_4jAk3fm_-14" value="Stabilisco massimo da spendere" style="whiteSpace=wrap;html=1;rounded=0;" vertex="1" parent="WIyWlLk6GJQsqaUBKTNV-1">
          <mxGeometry x="530" y="150" width="120" height="60" as="geometry" />
        </mxCell>
        <mxCell id="28hTMvahC_J_4jAk3fm_-23" value="" style="edgeStyle=orthogonalEdgeStyle;rounded=0;orthogonalLoop=1;jettySize=auto;html=1;" edge="1" parent="WIyWlLk6GJQsqaUBKTNV-1" source="28hTMvahC_J_4jAk3fm_-16" target="28hTMvahC_J_4jAk3fm_-22">
          <mxGeometry relative="1" as="geometry" />
        </mxCell>
        <mxCell id="28hTMvahC_J_4jAk3fm_-16" value="Vado al negozio" style="whiteSpace=wrap;html=1;rounded=0;" vertex="1" parent="WIyWlLk6GJQsqaUBKTNV-1">
          <mxGeometry x="540" y="320" width="120" height="60" as="geometry" />
        </mxCell>
        <mxCell id="28hTMvahC_J_4jAk3fm_-25" value="" style="edgeStyle=orthogonalEdgeStyle;rounded=0;orthogonalLoop=1;jettySize=auto;html=1;" edge="1" parent="WIyWlLk6GJQsqaUBKTNV-1" source="28hTMvahC_J_4jAk3fm_-22" target="28hTMvahC_J_4jAk3fm_-24">
          <mxGeometry relative="1" as="geometry" />
        </mxCell>
        <mxCell id="28hTMvahC_J_4jAk3fm_-22" value="Prendo il carrello" style="whiteSpace=wrap;html=1;rounded=0;" vertex="1" parent="WIyWlLk6GJQsqaUBKTNV-1">
          <mxGeometry x="354" y="220" width="120" height="60" as="geometry" />
        </mxCell>
        <mxCell id="28hTMvahC_J_4jAk3fm_-27" value="" style="edgeStyle=orthogonalEdgeStyle;rounded=0;orthogonalLoop=1;jettySize=auto;html=1;" edge="1" parent="WIyWlLk6GJQsqaUBKTNV-1" source="28hTMvahC_J_4jAk3fm_-24" target="28hTMvahC_J_4jAk3fm_-26">
          <mxGeometry relative="1" as="geometry" />
        </mxCell>
        <mxCell id="28hTMvahC_J_4jAk3fm_-24" value="Controllo di tutti gli elementi che sono sulla lista" style="whiteSpace=wrap;html=1;rounded=0;" vertex="1" parent="WIyWlLk6GJQsqaUBKTNV-1">
          <mxGeometry x="154" y="220" width="120" height="60" as="geometry" />
        </mxCell>
        <mxCell id="28hTMvahC_J_4jAk3fm_-29" value="sì" style="edgeStyle=orthogonalEdgeStyle;rounded=0;orthogonalLoop=1;jettySize=auto;html=1;" edge="1" parent="WIyWlLk6GJQsqaUBKTNV-1" source="28hTMvahC_J_4jAk3fm_-26" target="28hTMvahC_J_4jAk3fm_-28">
          <mxGeometry relative="1" as="geometry" />
        </mxCell>
        <mxCell id="28hTMvahC_J_4jAk3fm_-31" value="no" style="edgeStyle=orthogonalEdgeStyle;rounded=0;orthogonalLoop=1;jettySize=auto;html=1;" edge="1" parent="WIyWlLk6GJQsqaUBKTNV-1" source="28hTMvahC_J_4jAk3fm_-26" target="28hTMvahC_J_4jAk3fm_-30">
          <mxGeometry relative="1" as="geometry" />
        </mxCell>
        <mxCell id="28hTMvahC_J_4jAk3fm_-26" value="è nel supermercato?" style="rhombus;whiteSpace=wrap;html=1;rounded=0;" vertex="1" parent="WIyWlLk6GJQsqaUBKTNV-1">
          <mxGeometry x="174" y="350" width="80" height="80" as="geometry" />
        </mxCell>
        <mxCell id="28hTMvahC_J_4jAk3fm_-38" value="" style="edgeStyle=orthogonalEdgeStyle;rounded=0;orthogonalLoop=1;jettySize=auto;html=1;" edge="1" parent="WIyWlLk6GJQsqaUBKTNV-1" source="28hTMvahC_J_4jAk3fm_-28" target="28hTMvahC_J_4jAk3fm_-37">
          <mxGeometry relative="1" as="geometry">
            <Array as="points">
              <mxPoint x="90" y="600" />
            </Array>
          </mxGeometry>
        </mxCell>
        <mxCell id="28hTMvahC_J_4jAk3fm_-28" value="Aggiungo al carrello e rimuovo dalla lista" style="whiteSpace=wrap;html=1;rounded=0;" vertex="1" parent="WIyWlLk6GJQsqaUBKTNV-1">
          <mxGeometry x="10" y="360" width="120" height="60" as="geometry" />
        </mxCell>
        <mxCell id="28hTMvahC_J_4jAk3fm_-30" value="inserisco l&#39;elemento sulla lista &quot;Altro&quot; e rimuovo l&#39;elemento dalla prima lista" style="whiteSpace=wrap;html=1;rounded=0;" vertex="1" parent="WIyWlLk6GJQsqaUBKTNV-1">
          <mxGeometry x="310" y="360" width="120" height="60" as="geometry" />
        </mxCell>
        <mxCell id="28hTMvahC_J_4jAk3fm_-42" value="" style="edgeStyle=orthogonalEdgeStyle;rounded=0;orthogonalLoop=1;jettySize=auto;html=1;" edge="1" parent="WIyWlLk6GJQsqaUBKTNV-1" source="28hTMvahC_J_4jAk3fm_-37" target="28hTMvahC_J_4jAk3fm_-41">
          <mxGeometry relative="1" as="geometry">
            <Array as="points">
              <mxPoint x="214" y="580" />
              <mxPoint x="214" y="580" />
            </Array>
          </mxGeometry>
        </mxCell>
        <mxCell id="28hTMvahC_J_4jAk3fm_-37" value="passo all&#39;elemento successivo" style="whiteSpace=wrap;html=1;rounded=0;" vertex="1" parent="WIyWlLk6GJQsqaUBKTNV-1">
          <mxGeometry x="160" y="590" width="120" height="60" as="geometry" />
        </mxCell>
        <mxCell id="28hTMvahC_J_4jAk3fm_-39" value="" style="endArrow=classic;html=1;rounded=0;exitX=0.456;exitY=1.023;exitDx=0;exitDy=0;exitPerimeter=0;" edge="1" parent="WIyWlLk6GJQsqaUBKTNV-1" source="28hTMvahC_J_4jAk3fm_-30" target="28hTMvahC_J_4jAk3fm_-37">
          <mxGeometry width="50" height="50" relative="1" as="geometry">
            <mxPoint x="530" y="400" as="sourcePoint" />
            <mxPoint x="580" y="350" as="targetPoint" />
            <Array as="points">
              <mxPoint x="365" y="510" />
              <mxPoint x="365" y="620" />
            </Array>
          </mxGeometry>
        </mxCell>
        <mxCell id="28hTMvahC_J_4jAk3fm_-43" value="sì" style="edgeStyle=orthogonalEdgeStyle;rounded=0;orthogonalLoop=1;jettySize=auto;html=1;" edge="1" parent="WIyWlLk6GJQsqaUBKTNV-1" source="28hTMvahC_J_4jAk3fm_-41" target="28hTMvahC_J_4jAk3fm_-26">
          <mxGeometry relative="1" as="geometry" />
        </mxCell>
        <mxCell id="28hTMvahC_J_4jAk3fm_-41" value="Esiste un altro elemento?" style="rhombus;whiteSpace=wrap;html=1;" vertex="1" parent="WIyWlLk6GJQsqaUBKTNV-1">
          <mxGeometry x="174" y="480" width="80" height="80" as="geometry" />
        </mxCell>
        <mxCell id="28hTMvahC_J_4jAk3fm_-51" value="" style="edgeStyle=orthogonalEdgeStyle;rounded=0;orthogonalLoop=1;jettySize=auto;html=1;" edge="1" parent="WIyWlLk6GJQsqaUBKTNV-1" source="28hTMvahC_J_4jAk3fm_-49" target="28hTMvahC_J_4jAk3fm_-50">
          <mxGeometry relative="1" as="geometry" />
        </mxCell>
        <mxCell id="28hTMvahC_J_4jAk3fm_-60" value="" style="edgeStyle=orthogonalEdgeStyle;rounded=0;orthogonalLoop=1;jettySize=auto;html=1;" edge="1" parent="WIyWlLk6GJQsqaUBKTNV-1" source="28hTMvahC_J_4jAk3fm_-49" target="28hTMvahC_J_4jAk3fm_-59">
          <mxGeometry relative="1" as="geometry" />
        </mxCell>
        <mxCell id="28hTMvahC_J_4jAk3fm_-49" value="Prendi oggetti fuori lista" style="rounded=0;whiteSpace=wrap;html=1;" vertex="1" parent="WIyWlLk6GJQsqaUBKTNV-1">
          <mxGeometry x="440" y="490" width="120" height="60" as="geometry" />
        </mxCell>
        <mxCell id="28hTMvahC_J_4jAk3fm_-53" value="sì" style="edgeStyle=orthogonalEdgeStyle;rounded=0;orthogonalLoop=1;jettySize=auto;html=1;" edge="1" parent="WIyWlLk6GJQsqaUBKTNV-1" source="28hTMvahC_J_4jAk3fm_-50" target="28hTMvahC_J_4jAk3fm_-52">
          <mxGeometry relative="1" as="geometry" />
        </mxCell>
        <mxCell id="28hTMvahC_J_4jAk3fm_-56" value="no" style="edgeStyle=orthogonalEdgeStyle;rounded=0;orthogonalLoop=1;jettySize=auto;html=1;" edge="1" parent="WIyWlLk6GJQsqaUBKTNV-1" source="28hTMvahC_J_4jAk3fm_-50" target="28hTMvahC_J_4jAk3fm_-55">
          <mxGeometry relative="1" as="geometry" />
        </mxCell>
        <mxCell id="28hTMvahC_J_4jAk3fm_-50" value="abbiamo abbastanza soldi?" style="rhombus;whiteSpace=wrap;html=1;rounded=0;" vertex="1" parent="WIyWlLk6GJQsqaUBKTNV-1">
          <mxGeometry x="850" y="480" width="80" height="80" as="geometry" />
        </mxCell>
        <mxCell id="28hTMvahC_J_4jAk3fm_-63" value="" style="edgeStyle=orthogonalEdgeStyle;rounded=0;orthogonalLoop=1;jettySize=auto;html=1;" edge="1" parent="WIyWlLk6GJQsqaUBKTNV-1" source="28hTMvahC_J_4jAk3fm_-52">
          <mxGeometry relative="1" as="geometry">
            <mxPoint x="930" y="290.0000000000001" as="targetPoint" />
          </mxGeometry>
        </mxCell>
        <mxCell id="28hTMvahC_J_4jAk3fm_-52" value="Vado in cassa, paghiamo e usciamo" style="whiteSpace=wrap;html=1;rounded=0;" vertex="1" parent="WIyWlLk6GJQsqaUBKTNV-1">
          <mxGeometry x="920" y="340" width="120" height="60" as="geometry" />
        </mxCell>
        <mxCell id="28hTMvahC_J_4jAk3fm_-55" value="rimuovo oggetti fuori lista dal carrello" style="whiteSpace=wrap;html=1;rounded=0;" vertex="1" parent="WIyWlLk6GJQsqaUBKTNV-1">
          <mxGeometry x="990" y="490" width="120" height="60" as="geometry" />
        </mxCell>
        <mxCell id="28hTMvahC_J_4jAk3fm_-57" value="" style="endArrow=classic;html=1;rounded=0;exitX=1;exitY=0.5;exitDx=0;exitDy=0;entryX=0;entryY=0.5;entryDx=0;entryDy=0;" edge="1" parent="WIyWlLk6GJQsqaUBKTNV-1" source="28hTMvahC_J_4jAk3fm_-41" target="28hTMvahC_J_4jAk3fm_-49">
          <mxGeometry width="50" height="50" relative="1" as="geometry">
            <mxPoint x="540" y="470" as="sourcePoint" />
            <mxPoint x="590" y="420" as="targetPoint" />
          </mxGeometry>
        </mxCell>
        <mxCell id="28hTMvahC_J_4jAk3fm_-58" value="no" style="edgeLabel;html=1;align=center;verticalAlign=middle;resizable=0;points=[];" vertex="1" connectable="0" parent="28hTMvahC_J_4jAk3fm_-57">
          <mxGeometry x="0.1751" y="-1" relative="1" as="geometry">
            <mxPoint as="offset" />
          </mxGeometry>
        </mxCell>
        <mxCell id="28hTMvahC_J_4jAk3fm_-59" value="Controllo budget" style="whiteSpace=wrap;html=1;rounded=0;" vertex="1" parent="WIyWlLk6GJQsqaUBKTNV-1">
          <mxGeometry x="630" y="490" width="120" height="60" as="geometry" />
        </mxCell>
        <mxCell id="28hTMvahC_J_4jAk3fm_-61" value="" style="endArrow=classic;html=1;rounded=0;exitX=0.5;exitY=1;exitDx=0;exitDy=0;entryX=0.5;entryY=1;entryDx=0;entryDy=0;" edge="1" parent="WIyWlLk6GJQsqaUBKTNV-1" source="28hTMvahC_J_4jAk3fm_-55" target="28hTMvahC_J_4jAk3fm_-50">
          <mxGeometry width="50" height="50" relative="1" as="geometry">
            <mxPoint x="920" y="480" as="sourcePoint" />
            <mxPoint x="870" y="640" as="targetPoint" />
            <Array as="points">
              <mxPoint x="1050" y="650" />
              <mxPoint x="890" y="650" />
            </Array>
          </mxGeometry>
        </mxCell>
        <mxCell id="28hTMvahC_J_4jAk3fm_-68" value="" style="edgeStyle=orthogonalEdgeStyle;rounded=0;orthogonalLoop=1;jettySize=auto;html=1;" edge="1" parent="WIyWlLk6GJQsqaUBKTNV-1" source="28hTMvahC_J_4jAk3fm_-64">
          <mxGeometry relative="1" as="geometry">
            <mxPoint x="1030" y="250.0000000000001" as="targetPoint" />
          </mxGeometry>
        </mxCell>
        <mxCell id="28hTMvahC_J_4jAk3fm_-69" value="no" style="edgeLabel;html=1;align=center;verticalAlign=middle;resizable=0;points=[];" vertex="1" connectable="0" parent="28hTMvahC_J_4jAk3fm_-68">
          <mxGeometry x="-0.0359" relative="1" as="geometry">
            <mxPoint as="offset" />
          </mxGeometry>
        </mxCell>
        <mxCell id="28hTMvahC_J_4jAk3fm_-64" value="Esiste una lista &quot;altro&quot;?" style="rhombus;whiteSpace=wrap;html=1;" vertex="1" parent="WIyWlLk6GJQsqaUBKTNV-1">
          <mxGeometry x="890" y="210" width="80" height="80" as="geometry" />
        </mxCell>
        <mxCell id="28hTMvahC_J_4jAk3fm_-65" value="" style="endArrow=classic;html=1;rounded=0;exitX=0;exitY=0.5;exitDx=0;exitDy=0;entryX=1;entryY=0.5;entryDx=0;entryDy=0;" edge="1" parent="WIyWlLk6GJQsqaUBKTNV-1" source="28hTMvahC_J_4jAk3fm_-71" target="28hTMvahC_J_4jAk3fm_-16">
          <mxGeometry width="50" height="50" relative="1" as="geometry">
            <mxPoint x="820" y="410" as="sourcePoint" />
            <mxPoint x="870" y="360" as="targetPoint" />
            <Array as="points" />
          </mxGeometry>
        </mxCell>
        <mxCell id="28hTMvahC_J_4jAk3fm_-70" value="Torno a casa" style="ellipse;whiteSpace=wrap;html=1;" vertex="1" parent="WIyWlLk6GJQsqaUBKTNV-1">
          <mxGeometry x="1030" y="210" width="120" height="80" as="geometry" />
        </mxCell>
        <mxCell id="28hTMvahC_J_4jAk3fm_-72" value="sì" style="endArrow=classic;html=1;rounded=0;exitX=0;exitY=0.5;exitDx=0;exitDy=0;entryX=1;entryY=0.5;entryDx=0;entryDy=0;" edge="1" parent="WIyWlLk6GJQsqaUBKTNV-1" source="28hTMvahC_J_4jAk3fm_-64" target="28hTMvahC_J_4jAk3fm_-71">
          <mxGeometry width="50" height="50" relative="1" as="geometry">
            <mxPoint x="890" y="250" as="sourcePoint" />
            <mxPoint x="660" y="350" as="targetPoint" />
            <Array as="points">
              <mxPoint x="880" y="350" />
            </Array>
          </mxGeometry>
        </mxCell>
        <mxCell id="28hTMvahC_J_4jAk3fm_-71" value="Scelgo altro negozio" style="rounded=0;whiteSpace=wrap;html=1;" vertex="1" parent="WIyWlLk6GJQsqaUBKTNV-1">
          <mxGeometry x="707" y="320" width="120" height="60" as="geometry" />
        </mxCell>
      </root>
    </mxGraphModel>
  </diagram>
</mxfile>
